<?xml version="1.0" standalone="no"?>
<svg xmlns:xlink="http://www.w3.org/1999/xlink" id="wave" style="transform:rotate(180deg); transition: 0.3s" viewBox="0 0 1440 160" version="1.1" xmlns="http://www.w3.org/2000/svg"><defs><linearGradient id="sw-gradient-0" x1="0" x2="0" y1="1" y2="0"><stop stop-color="rgba(241, 250, 238, 1)" offset="0%"/><stop stop-color="rgba(241, 250, 238, 1)" offset="100%"/></linearGradient></defs><path style="transform:translate(0, 0px); opacity:1" fill="url(#sw-gradient-0)" d="M0,128L1440,96L2880,64L4320,112L5760,48L7200,144L8640,32L10080,16L11520,64L12960,64L14400,144L15840,0L17280,64L18720,32L20160,112L21600,48L23040,128L24480,32L25920,32L27360,0L28800,112L30240,144L31680,80L33120,144L34560,96L34560,160L33120,160L31680,160L30240,160L28800,160L27360,160L25920,160L24480,160L23040,160L21600,160L20160,160L18720,160L17280,160L15840,160L14400,160L12960,160L11520,160L10080,160L8640,160L7200,160L5760,160L4320,160L2880,160L1440,160L0,160Z"/></svg>